<svg width="64" height="64" viewBox="0 0 40 40" fill="none" xmlns="http://www.w3.org/2000/svg">
  <defs>
    <linearGradient id="neonGradient" x1="0%" y1="0%" x2="100%" y2="100%">
      <stop offset="0%" stopColor="#00f0ff" />
      <stop offset="100%" stopColor="#7c3aed" />
    </linearGradient>
    <filter id="glow" x="-20%" y="-20%" width="140%" height="140%">
      <feGaussianBlur stdDeviation="2.5" result="coloredBlur" />
      <feComposite in="coloredBlur" operator="over" />
    </filter>
  </defs>

  <rect
    x="6"
    y="6"
    width="28"
    height="28"
    rx="6"
    fill="rgba(20, 20, 30, 0.9)"
    stroke="rgba(255, 255, 255, 0.1)"
    stroke-width="1.5"
  />
  
  <path
    d="M6 12C6 8.68629 8.68629 6 12 6H28C31.3137 6 34 8.68629 34 12V14H6V12Z"
    fill="rgba(255, 255, 255, 0.1)"
  />
  <path d="M12 4V8 M28 4V8" stroke="#00f0ff" stroke-width="2" stroke-linecap="round" />

  <path
    d="M22 14L16 22H21L19 30L26 21H20L22 14Z"
    fill="url(#neonGradient)"
    filter="url(#glow)"
  />
  <path
    d="M22 14L16 22H21L19 30L26 21H20L22 14Z"
    stroke="white"
    stroke-width="1"
    stroke-linejoin="round"
  />
</svg>
